<svg width="600" height="200" viewBox="0 0 600 200" fill="none" xmlns="http://www.w3.org/2000/svg">
<rect width="600" height="200" rx="15" fill="#CFC5E2"/>
<mask id="path-2-inside-1_162_84" fill="white">
<path fill-rule="evenodd" clip-rule="evenodd" d="M51.5255 85.1868C43.1569 78.3677 37.8025 67.9172 37.8025 56.2019C37.8025 35.6559 54.271 19 74.586 19C94.9009 19 111.369 35.6559 111.369 56.2019C111.369 61.9596 110.076 67.4118 107.767 72.2775C129.424 79.7498 145 100.504 145 124.937C145 155.658 120.376 180.563 90 180.563C59.6243 180.563 35 155.658 35 124.937C35 109.363 41.3281 95.2842 51.5255 85.1868Z"/>
</mask>
<path fill-rule="evenodd" clip-rule="evenodd" d="M51.5255 85.1868C43.1569 78.3677 37.8025 67.9172 37.8025 56.2019C37.8025 35.6559 54.271 19 74.586 19C94.9009 19 111.369 35.6559 111.369 56.2019C111.369 61.9596 110.076 67.4118 107.767 72.2775C129.424 79.7498 145 100.504 145 124.937C145 155.658 120.376 180.563 90 180.563C59.6243 180.563 35 155.658 35 124.937C35 109.363 41.3281 95.2842 51.5255 85.1868Z" fill="white"/>
<path d="M51.5255 85.1868L52.1572 84.4116L53.0198 85.1145L52.2292 85.8974L51.5255 85.1868ZM107.767 72.2775L107.441 73.2229L106.385 72.8584L106.864 71.8489L107.767 72.2775ZM38.8025 56.2019C38.8025 67.6062 44.0135 77.7757 52.1572 84.4116L50.8939 85.962C42.3002 78.9596 36.8025 68.2281 36.8025 56.2019H38.8025ZM74.586 20C54.834 20 38.8025 36.1974 38.8025 56.2019H36.8025C36.8025 35.1143 53.7081 18 74.586 18V20ZM110.369 56.2019C110.369 36.1974 94.338 20 74.586 20V18C95.4638 18 112.369 35.1143 112.369 56.2019H110.369ZM106.864 71.8489C109.11 67.1145 110.369 61.8085 110.369 56.2019H112.369C112.369 62.1107 111.042 67.7091 108.671 72.7062L106.864 71.8489ZM144 124.937C144 100.937 128.702 80.5583 107.441 73.2229L108.093 71.3322C130.147 78.9413 146 100.07 146 124.937H144ZM90 179.563C119.813 179.563 144 155.116 144 124.937H146C146 156.2 120.939 181.563 90 181.563V179.563ZM36 124.937C36 155.116 60.1873 179.563 90 179.563V181.563C59.0614 181.563 34 156.2 34 124.937H36ZM52.2292 85.8974C42.2148 95.8135 36 109.639 36 124.937H34C34 109.087 40.4413 94.755 50.8219 84.4762L52.2292 85.8974Z" fill="black" mask="url(#path-2-inside-1_162_84)"/>
<line y1="-0.5" x2="16.1296" y2="-0.5" transform="matrix(-0.999035 0.0439304 0.0429495 0.999077 91.752 36.0066)" stroke="black"/>
<line y1="-0.5" x2="14.1323" y2="-0.5" transform="matrix(-0.892388 0.45127 0.443176 0.896435 65.1265 38.841)" stroke="black"/>
<line y1="-0.5" x2="12.3588" y2="-0.5" transform="matrix(0.510221 0.860043 0.854908 -0.51878 71.4321 41.6754)" stroke="black"/>
<line y1="-0.5" x2="4.09773" y2="-0.5" transform="matrix(-0.854908 0.51878 0.510221 0.860043 77.7378 52.3046)" stroke="black"/>
<path d="M86.8478 60.5101C86.8478 60.5101 79.9841 60.1483 77.8111 60.5101C75.638 60.8718 70.0325 64.0531 70.0325 64.0531" stroke="black"/>
<g filter="url(#filter0_d_162_84)">
<rect width="15.0346" height="26.2013" rx="2" transform="matrix(-0.969606 0.244671 0.239515 0.970893 106.495 78.523)" fill="#353535"/>
<rect x="-0.365046" y="0.607782" width="14.0346" height="25.2013" rx="1.5" transform="matrix(-0.969606 0.244671 0.239515 0.970893 105.63 78.63)" stroke="black"/>
</g>
<path d="M49.1497 111.335C49.894 112.398 51.6124 112.81 54.0576 112.339C56.4555 111.877 59.3576 110.591 62.1768 108.572C64.996 106.552 67.159 104.211 68.3862 102.077C69.6376 99.9003 69.8233 98.124 69.079 97.061C68.3347 95.998 66.6163 95.5855 64.1712 96.0568C61.7733 96.519 58.8711 97.805 56.0519 99.8242C53.2327 101.843 51.0697 104.185 49.8425 106.319C48.5912 108.495 48.4054 110.272 49.1497 111.335Z" fill="white" stroke="black"/>
<path d="M104.593 92.5373C104.293 93.7202 105.046 95.2215 106.887 96.7194C108.692 98.1872 111.396 99.5199 114.576 100.343C117.755 101.166 120.76 101.311 123.04 100.9C125.366 100.48 126.74 99.5294 127.039 98.3464C127.338 97.1634 126.585 95.6621 124.744 94.1642C122.94 92.6964 120.235 91.3638 117.056 90.5409C113.876 89.7181 110.871 89.5731 108.592 89.984C106.265 90.4033 104.892 91.3543 104.593 92.5373Z" fill="white" stroke="black"/>
<mask id="path-13-inside-2_162_84" fill="white">
<path fill-rule="evenodd" clip-rule="evenodd" d="M549.474 85.1867C557.843 78.3676 563.197 67.9171 563.197 56.2019C563.197 35.6559 546.729 19 526.414 19C506.099 19 489.63 35.6559 489.63 56.2019C489.63 61.9596 490.924 67.4118 493.232 72.2776C471.576 79.7499 456 100.504 456 124.937C456 155.658 480.624 180.563 511 180.563C541.376 180.563 566 155.658 566 124.937C566 109.363 559.672 95.2842 549.474 85.1867Z"/>
</mask>
<path fill-rule="evenodd" clip-rule="evenodd" d="M549.474 85.1867C557.843 78.3676 563.197 67.9171 563.197 56.2019C563.197 35.6559 546.729 19 526.414 19C506.099 19 489.63 35.6559 489.63 56.2019C489.63 61.9596 490.924 67.4118 493.232 72.2776C471.576 79.7499 456 100.504 456 124.937C456 155.658 480.624 180.563 511 180.563C541.376 180.563 566 155.658 566 124.937C566 109.363 559.672 95.2842 549.474 85.1867Z" fill="white"/>
<path d="M549.474 85.1867L548.843 84.4115L547.98 85.1144L548.771 85.8973L549.474 85.1867ZM493.232 72.2776L493.559 73.2229L494.615 72.8585L494.136 71.8489L493.232 72.2776ZM562.197 56.2019C562.197 67.6062 556.986 77.7757 548.843 84.4115L550.106 85.962C558.7 78.9595 564.197 68.2281 564.197 56.2019H562.197ZM526.414 20C546.166 20 562.197 36.1974 562.197 56.2019H564.197C564.197 35.1143 547.292 18 526.414 18V20ZM490.63 56.2019C490.63 36.1974 506.662 20 526.414 20V18C505.536 18 488.63 35.1143 488.63 56.2019H490.63ZM494.136 71.8489C491.889 67.1145 490.63 61.8085 490.63 56.2019H488.63C488.63 62.1107 489.958 67.7091 492.329 72.7063L494.136 71.8489ZM457 124.937C457 100.937 472.298 80.5584 493.559 73.2229L492.906 71.3323C470.853 78.9414 455 100.07 455 124.937H457ZM511 179.563C481.187 179.563 457 155.116 457 124.937H455C455 156.2 480.061 181.563 511 181.563V179.563ZM565 124.937C565 155.116 540.813 179.563 511 179.563V181.563C541.939 181.563 567 156.2 567 124.937H565ZM548.771 85.8973C558.785 95.8134 565 109.639 565 124.937H567C567 109.087 560.559 94.7549 550.178 84.4761L548.771 85.8973Z" fill="black" mask="url(#path-13-inside-2_162_84)"/>
<g filter="url(#filter1_d_162_84)">
<rect width="15.0323" height="25.8531" rx="2" transform="matrix(-0.970464 0.241247 0.242917 0.970047 527.18 83)" fill="#353535"/>
<rect x="-0.363773" y="0.605647" width="14.0323" height="24.8531" rx="1.5" transform="matrix(-0.970464 0.241247 0.242917 0.970047 526.316 83.1059)" stroke="black"/>
</g>
<path d="M488.175 114.861C489.441 114.631 490.537 113.252 491.147 110.846C491.746 108.487 491.819 105.329 491.199 101.94C490.579 98.5522 489.393 95.6229 487.998 93.6258C486.575 91.589 485.061 90.6833 483.796 90.9131C482.53 91.1429 481.434 92.5224 480.824 94.9283C480.225 97.2875 480.152 100.445 480.772 103.834C481.392 107.222 482.578 110.151 483.973 112.148C485.396 114.185 486.91 115.091 488.175 114.861Z" fill="white" stroke="black"/>
<path d="M525.276 96.816C524.979 97.9748 525.727 99.4529 527.572 100.932C529.378 102.379 532.086 103.693 535.268 104.505C538.451 105.316 541.459 105.459 543.741 105.054C546.072 104.64 547.441 103.702 547.739 102.543C548.036 101.384 547.288 99.906 545.443 98.4273C543.637 96.9799 540.929 95.6657 537.747 94.8543C534.564 94.0429 531.556 93.8999 529.274 94.3051C526.943 94.719 525.574 95.6572 525.276 96.816Z" fill="white" stroke="black"/>
<line y1="-0.5" x2="13.2935" y2="-0.5" transform="matrix(0.84985 0.527025 0.530032 -0.847978 511.781 34.447)" stroke="black"/>
<line y1="-0.5" x2="15.8158" y2="-0.5" transform="matrix(0.990857 -0.134914 -0.133345 -0.99107 533.071 42.1453)" stroke="black"/>
<line y1="-0.5" x2="13.3316" y2="-0.5" transform="matrix(-0.337188 0.941437 -0.942649 -0.333786 526.301 44.4001)" stroke="black"/>
<line y1="-0.5" x2="4.44663" y2="-0.5" transform="matrix(0.942649 0.333786 -0.337188 0.941437 521.805 56.9512)" stroke="black"/>
<path d="M513.487 65.7635C513.487 65.7635 521.161 62.7238 523.559 62.8119C525.957 62.9 532.14 67.2381 532.14 67.2381" stroke="black"/>
<path opacity="0.6" d="M113.924 22.43V31.18H119.048V22.43H117.326V25.342H115.674V22.43H113.924ZM115.674 26.798H117.326V29.696H115.674V26.798ZM122.926 21.282V34.246H124.704V21.282H122.926ZM121.33 26.224V27.722H123.486V26.224H121.33ZM120.084 21.478V33.658H121.834V21.478H120.084ZM127.643 22.374V23.872H135.861V22.374H127.643ZM126.453 31.18V32.692H138.171V31.18H126.453ZM130.597 26.728V31.922H132.459V26.728H130.597ZM135.189 22.374V23.62C135.189 25.174 135.189 27.05 134.671 29.626L136.533 29.836C137.051 27.064 137.051 25.244 137.051 23.62V22.374H135.189ZM140.34 21.828V23.298H150V21.828H140.34ZM140.438 25.482V26.938H149.902V25.482H140.438ZM141.992 22.388V26.238H143.854V22.388H141.992ZM146.486 22.388V26.238H148.348V22.388H146.486ZM139.318 27.96V29.43H151.036V27.96H139.318ZM140.732 32.538V34.022H149.72V32.538H140.732ZM140.732 30.298V33.014H142.594V30.298H140.732ZM161.563 21.282V34.246H163.341V21.282H161.563ZM156.635 26.014V27.512H159.645V26.014H156.635ZM158.889 21.506V33.672H160.625V21.506H158.889ZM152.575 29.836V31.376H153.471C155.361 31.376 156.649 31.32 158.091 31.026L157.951 29.514C156.523 29.794 155.305 29.836 153.471 29.836H152.575ZM152.575 22.738V30.48H154.409V24.222H157.517V22.738H152.575Z" fill="#3C2E51"/>
<path opacity="0.6" d="M146.696 47.59V52.854H148.558V47.59H146.696ZM152.674 40.282V53.246H154.55V40.282H152.674ZM143.742 48.388C146.206 48.388 149.146 48.36 151.96 47.94L151.862 46.582C149.132 46.876 146.052 46.876 143.518 46.89L143.742 48.388ZM150.084 49.018V50.418H153.052V49.018H150.084ZM144.554 40.898V45.826H151.05V40.898H144.554ZM149.23 42.368V44.356H146.388V42.368H149.23ZM158.455 48.556V50.012H165.427V53.26H167.289V48.556H158.455ZM165.427 40.282V47.954H167.289V40.282H165.427ZM162.781 43.376V44.874H165.889V43.376H162.781ZM156.971 41.22V47.254H163.103V41.22H156.971ZM161.269 42.69V45.798H158.805V42.69H161.269ZM172.44 42.326V43.782C172.44 45.98 171.39 48.374 169.22 49.34L170.27 50.81C172.706 49.704 173.924 46.778 173.924 43.782V42.326H172.44ZM172.86 42.326V43.782C172.86 46.666 174.064 49.424 176.528 50.488L177.536 49.018C175.366 48.122 174.33 45.882 174.33 43.782V42.326H172.86ZM169.738 41.528V43.054H177.004V41.528H169.738ZM178.208 40.282V53.246H180.084V40.282H178.208ZM182.435 51.02C182.435 50.5907 182.551 50.292 182.785 50.124C183.018 49.9467 183.303 49.858 183.639 49.858C183.965 49.858 184.245 49.9467 184.479 50.124C184.712 50.292 184.829 50.5907 184.829 51.02C184.829 51.4307 184.712 51.7293 184.479 51.916C184.245 52.0933 183.965 52.182 183.639 52.182C183.303 52.182 183.018 52.0933 182.785 51.916C182.551 51.7293 182.435 51.4307 182.435 51.02ZM186.427 51.02C186.427 50.5907 186.544 50.292 186.777 50.124C187.01 49.9467 187.295 49.858 187.631 49.858C187.958 49.858 188.238 49.9467 188.471 50.124C188.704 50.292 188.821 50.5907 188.821 51.02C188.821 51.4307 188.704 51.7293 188.471 51.916C188.238 52.0933 187.958 52.182 187.631 52.182C187.295 52.182 187.01 52.0933 186.777 51.916C186.544 51.7293 186.427 51.4307 186.427 51.02Z" fill="#3C2E51"/>
<path opacity="0.6" d="M387.426 21.926C384.696 21.926 382.582 23.424 382.582 25.678C382.582 27.946 384.696 29.43 387.426 29.43C390.156 29.43 392.27 27.946 392.27 25.678C392.27 23.424 390.156 21.926 387.426 21.926ZM387.426 23.438C389.19 23.438 390.45 24.278 390.45 25.678C390.45 27.064 389.19 27.904 387.426 27.904C385.662 27.904 384.402 27.064 384.402 25.678C384.402 24.278 385.662 23.438 387.426 23.438ZM381.574 31.166V32.692H393.306V31.166H381.574ZM403.329 21.268V34.274H405.205V21.268H403.329ZM398.219 22.178C396.259 22.178 394.817 23.97 394.817 26.798C394.817 29.654 396.259 31.446 398.219 31.446C400.179 31.446 401.621 29.654 401.621 26.798C401.621 23.97 400.179 22.178 398.219 22.178ZM398.219 23.872C399.185 23.872 399.829 24.894 399.829 26.798C399.829 28.73 399.185 29.766 398.219 29.766C397.253 29.766 396.595 28.73 396.595 26.798C396.595 24.894 397.253 23.872 398.219 23.872ZM408.662 22.038V23.508H416.796V22.038H408.662ZM407.332 27.554V29.052H419.05V27.554H407.332ZM412.19 28.604V34.26H414.066V28.604H412.19ZM415.844 22.038V23.186C415.844 24.53 415.844 26.07 415.34 28.24L417.174 28.45C417.678 26.154 417.678 24.586 417.678 23.186V22.038H415.844ZM422.479 29.682H420.813L420.463 23.004H422.829L422.479 29.682ZM420.435 32.02C420.435 31.5907 420.551 31.292 420.785 31.124C421.018 30.9467 421.303 30.858 421.639 30.858C421.965 30.858 422.245 30.9467 422.479 31.124C422.712 31.292 422.829 31.5907 422.829 32.02C422.829 32.4307 422.712 32.7293 422.479 32.916C422.245 33.0933 421.965 33.182 421.639 33.182C421.303 33.182 421.018 33.0933 420.785 32.916C420.551 32.7293 420.435 32.4307 420.435 32.02ZM432.767 33L430.359 25.16H430.303C430.313 25.3467 430.327 25.6267 430.345 26C430.364 26.3733 430.383 26.7747 430.401 27.204C430.42 27.624 430.429 28.0067 430.429 28.352V33H428.539V23.004H431.423L433.789 30.648H433.831L436.337 23.004H439.221V33H437.247V28.268C437.247 27.9507 437.252 27.5867 437.261 27.176C437.28 26.7653 437.294 26.378 437.303 26.014C437.322 25.6407 437.336 25.3607 437.345 25.174H437.289L434.713 33H432.767ZM444.728 25.216C445.438 25.216 446.044 25.3513 446.548 25.622C447.062 25.8927 447.458 26.2847 447.738 26.798C448.018 27.3113 448.158 27.9413 448.158 28.688V29.696H443.23C443.249 30.284 443.422 30.746 443.748 31.082C444.084 31.418 444.546 31.586 445.134 31.586C445.629 31.586 446.077 31.5393 446.478 31.446C446.88 31.3433 447.295 31.1893 447.724 30.984V32.594C447.351 32.7807 446.954 32.916 446.534 33C446.124 33.0933 445.624 33.14 445.036 33.14C444.271 33.14 443.594 33 443.006 32.72C442.418 32.4307 441.956 31.9967 441.62 31.418C441.284 30.8393 441.116 30.1113 441.116 29.234C441.116 28.338 441.266 27.596 441.564 27.008C441.872 26.4107 442.297 25.9627 442.838 25.664C443.38 25.3653 444.01 25.216 444.728 25.216ZM444.742 26.7C444.341 26.7 444.005 26.8307 443.734 27.092C443.473 27.3533 443.319 27.7593 443.272 28.31H446.198C446.198 28.002 446.142 27.7267 446.03 27.484C445.928 27.2413 445.769 27.05 445.554 26.91C445.34 26.77 445.069 26.7 444.742 26.7ZM452.958 33.14C452.202 33.14 451.558 33.0047 451.026 32.734C450.494 32.454 450.088 32.0247 449.808 31.446C449.528 30.8673 449.388 30.1253 449.388 29.22C449.388 28.2867 449.546 27.526 449.864 26.938C450.181 26.35 450.62 25.916 451.18 25.636C451.749 25.356 452.402 25.216 453.14 25.216C453.662 25.216 454.115 25.2673 454.498 25.37C454.89 25.4727 455.23 25.594 455.52 25.734L454.904 27.344C454.577 27.2133 454.269 27.106 453.98 27.022C453.7 26.938 453.42 26.896 453.14 26.896C452.776 26.896 452.472 26.9847 452.23 27.162C451.987 27.33 451.805 27.5867 451.684 27.932C451.572 28.268 451.516 28.6927 451.516 29.206C451.516 29.71 451.576 30.13 451.698 30.466C451.828 30.7927 452.015 31.04 452.258 31.208C452.5 31.3667 452.794 31.446 453.14 31.446C453.578 31.446 453.966 31.39 454.302 31.278C454.638 31.1567 454.964 30.9933 455.282 30.788V32.566C454.964 32.7713 454.628 32.916 454.274 33C453.928 33.0933 453.49 33.14 452.958 33.14ZM459.127 24.53C459.127 24.9033 459.113 25.2627 459.085 25.608C459.067 25.9533 459.048 26.196 459.029 26.336H459.141C459.309 26.0747 459.505 25.8647 459.729 25.706C459.953 25.538 460.201 25.4167 460.471 25.342C460.751 25.258 461.045 25.216 461.353 25.216C461.904 25.216 462.385 25.314 462.795 25.51C463.206 25.706 463.523 26.0093 463.747 26.42C463.981 26.8307 464.097 27.3627 464.097 28.016V33H462.011V28.534C462.011 27.9833 461.909 27.5727 461.703 27.302C461.507 27.022 461.199 26.882 460.779 26.882C460.359 26.882 460.028 26.98 459.785 27.176C459.552 27.372 459.384 27.6567 459.281 28.03C459.179 28.4033 459.127 28.8607 459.127 29.402V33H457.041V22.36H459.127V24.53ZM473.256 25.356V33H471.66L471.38 32.02H471.268C471.11 32.2813 470.904 32.496 470.652 32.664C470.41 32.8227 470.139 32.9393 469.84 33.014C469.542 33.098 469.234 33.14 468.916 33.14C468.375 33.14 467.899 33.042 467.488 32.846C467.078 32.65 466.76 32.3467 466.536 31.936C466.312 31.5253 466.2 30.9933 466.2 30.34V25.356H468.286V29.822C468.286 30.3633 468.384 30.774 468.58 31.054C468.776 31.334 469.089 31.474 469.518 31.474C469.948 31.474 470.279 31.376 470.512 31.18C470.755 30.984 470.923 30.6993 471.016 30.326C471.119 29.9527 471.17 29.4953 471.17 28.954V25.356H473.256ZM474.926 31.306V32.818H486.658V31.306H474.926ZM479.84 28.856V31.922H481.702V28.856H479.84ZM476.242 22.122V23.592H483.494V24.978H476.27V28.618H478.118V26.434H485.342V22.122H476.242ZM476.27 27.876V29.374H485.636V27.876H476.27Z" fill="#3C2E51"/>
<path opacity="0.6" d="M388.588 43.418V44.93H391.052V43.418H388.588ZM390.548 40.282V47.982H392.41V40.282H390.548ZM388.014 48.262C385.27 48.262 383.576 49.2 383.576 50.768C383.576 52.35 385.27 53.26 388.014 53.26C390.758 53.26 392.452 52.35 392.452 50.768C392.452 49.2 390.758 48.262 388.014 48.262ZM388.014 49.676C389.708 49.676 390.604 50.026 390.604 50.768C390.604 51.496 389.708 51.846 388.014 51.846C386.334 51.846 385.438 51.496 385.438 50.768C385.438 50.026 386.334 49.676 388.014 49.676ZM384.556 41.584V42.396C384.556 44.062 383.632 45.784 381.49 46.512L382.442 47.982C384.92 47.142 386.068 44.874 386.068 42.396V41.584H384.556ZM384.948 41.584V42.396C384.948 44.706 386.054 46.862 388.462 47.66L389.372 46.19C387.328 45.504 386.446 43.922 386.446 42.396V41.584H384.948ZM381.994 41.066V42.55H388.966V41.066H381.994ZM402.755 40.282V53.246H404.603V40.282H402.755ZM404.183 45.336V46.89H406.479V45.336H404.183ZM394.383 42.2V43.684H401.929V42.2H394.383ZM398.177 44.412C396.287 44.412 394.887 45.7 394.887 47.506C394.887 49.312 396.287 50.6 398.177 50.6C400.067 50.6 401.467 49.312 401.467 47.506C401.467 45.7 400.067 44.412 398.177 44.412ZM398.177 45.924C399.059 45.924 399.689 46.512 399.689 47.506C399.689 48.5 399.059 49.088 398.177 49.088C397.295 49.088 396.665 48.5 396.665 47.506C396.665 46.512 397.295 45.924 398.177 45.924ZM397.239 40.492V42.76H399.101V40.492H397.239ZM415.662 40.296V49.844H417.524V40.296H415.662ZM416.992 44.006V45.546H419.246V44.006H416.992ZM409.208 51.538V53.022H418V51.538H409.208ZM409.208 49.074V52.028H411.084V49.074H409.208ZM407.78 46.498V47.982H408.872C411.49 47.982 413.128 47.926 414.948 47.59L414.78 46.092C412.988 46.428 411.42 46.498 408.872 46.498H407.78ZM407.766 41.066V42.55H411.854V43.782H407.78V47.03H409.628V45.154H413.688V41.066H407.766ZM432.177 40.282V46.75H434.039V40.282H432.177ZM433.283 42.76V44.286H435.747V42.76H433.283ZM424.211 40.884V46.274H430.385V40.884H424.211ZM428.551 42.34V44.818H426.045V42.34H428.551ZM425.471 47.268V48.696H432.205V49.48H425.499V52.364H427.347V50.824H434.039V47.268H425.471ZM425.499 51.65V53.106H434.417V51.65H425.499ZM445.602 40.268V53.274H447.478V40.268H445.602ZM440.492 41.178C438.532 41.178 437.09 42.97 437.09 45.798C437.09 48.654 438.532 50.446 440.492 50.446C442.452 50.446 443.894 48.654 443.894 45.798C443.894 42.97 442.452 41.178 440.492 41.178ZM440.492 42.872C441.458 42.872 442.102 43.894 442.102 45.798C442.102 47.73 441.458 48.766 440.492 48.766C439.526 48.766 438.868 47.73 438.868 45.798C438.868 43.894 439.526 42.872 440.492 42.872ZM453.063 41.178C451.089 41.178 449.661 42.97 449.661 45.798C449.661 48.654 451.089 50.446 453.063 50.446C455.037 50.446 456.465 48.654 456.465 45.798C456.465 42.97 455.037 41.178 453.063 41.178ZM453.063 42.872C454.029 42.872 454.687 43.894 454.687 45.798C454.687 47.73 454.029 48.766 453.063 48.766C452.097 48.766 451.453 47.73 451.453 45.798C451.453 43.894 452.097 42.872 453.063 42.872ZM459.251 43.292V44.832H461.533V43.292H459.251ZM459.251 47.1V48.626H461.533V47.1H459.251ZM457.879 40.282V53.246H459.755V40.282H457.879ZM464.752 48.682H463.086L462.736 42.004H465.102L464.752 48.682ZM462.708 51.02C462.708 50.5907 462.825 50.292 463.058 50.124C463.291 49.9467 463.576 49.858 463.912 49.858C464.239 49.858 464.519 49.9467 464.752 50.124C464.985 50.292 465.102 50.5907 465.102 51.02C465.102 51.4307 464.985 51.7293 464.752 51.916C464.519 52.0933 464.239 52.182 463.912 52.182C463.576 52.182 463.291 52.0933 463.058 51.916C462.825 51.7293 462.708 51.4307 462.708 51.02Z" fill="#3C2E51"/>
<path d="M222.52 123L212.2 89.4H211.96C212 90.2 212.06 91.4 212.14 93C212.22 94.6 212.3 96.32 212.38 98.16C212.46 99.96 212.5 101.6 212.5 103.08V123H204.4V80.16H216.76L226.9 112.92H227.08L237.82 80.16H250.18V123H241.72V102.72C241.72 101.36 241.74 99.8 241.78 98.04C241.86 96.28 241.92 94.62 241.96 93.06C242.04 91.46 242.1 90.26 242.14 89.46H241.9L230.86 123H222.52ZM273.782 89.64C276.822 89.64 279.422 90.22 281.582 91.38C283.782 92.54 285.482 94.22 286.682 96.42C287.882 98.62 288.482 101.32 288.482 104.52V108.84H267.362C267.442 111.36 268.182 113.34 269.582 114.78C271.022 116.22 273.002 116.94 275.522 116.94C277.642 116.94 279.562 116.74 281.282 116.34C283.002 115.9 284.782 115.24 286.622 114.36V121.26C285.022 122.06 283.322 122.64 281.522 123C279.762 123.4 277.622 123.6 275.102 123.6C271.822 123.6 268.922 123 266.402 121.8C263.882 120.56 261.902 118.7 260.462 116.22C259.022 113.74 258.302 110.62 258.302 106.86C258.302 103.02 258.942 99.84 260.222 97.32C261.542 94.76 263.362 92.84 265.682 91.56C268.002 90.28 270.702 89.64 273.782 89.64ZM273.842 96C272.122 96 270.682 96.56 269.522 97.68C268.402 98.8 267.742 100.54 267.542 102.9H280.082C280.082 101.58 279.842 100.4 279.362 99.36C278.922 98.32 278.242 97.5 277.322 96.9C276.402 96.3 275.242 96 273.842 96ZM309.051 123.6C305.811 123.6 303.051 123.02 300.771 121.86C298.491 120.66 296.751 118.82 295.551 116.34C294.351 113.86 293.751 110.68 293.751 106.8C293.751 102.8 294.431 99.54 295.791 97.02C297.151 94.5 299.031 92.64 301.431 91.44C303.871 90.24 306.671 89.64 309.831 89.64C312.071 89.64 314.011 89.86 315.651 90.3C317.331 90.74 318.791 91.26 320.031 91.86L317.391 98.76C315.991 98.2 314.671 97.74 313.431 97.38C312.231 97.02 311.031 96.84 309.831 96.84C308.271 96.84 306.971 97.22 305.931 97.98C304.891 98.7 304.111 99.8 303.591 101.28C303.111 102.72 302.871 104.54 302.871 106.74C302.871 108.9 303.131 110.7 303.651 112.14C304.211 113.54 305.011 114.6 306.051 115.32C307.091 116 308.351 116.34 309.831 116.34C311.711 116.34 313.371 116.1 314.811 115.62C316.251 115.1 317.651 114.4 319.011 113.52V121.14C317.651 122.02 316.211 122.64 314.691 123C313.211 123.4 311.331 123.6 309.051 123.6ZM335.491 86.7C335.491 88.3 335.431 89.84 335.311 91.32C335.231 92.8 335.151 93.84 335.071 94.44H335.551C336.271 93.32 337.111 92.42 338.071 91.74C339.031 91.02 340.091 90.5 341.251 90.18C342.451 89.82 343.711 89.64 345.031 89.64C347.391 89.64 349.451 90.06 351.211 90.9C352.971 91.74 354.331 93.04 355.291 94.8C356.291 96.56 356.791 98.84 356.791 101.64V123H347.851V103.86C347.851 101.5 347.411 99.74 346.531 98.58C345.691 97.38 344.371 96.78 342.571 96.78C340.771 96.78 339.351 97.2 338.311 98.04C337.311 98.88 336.591 100.1 336.151 101.7C335.711 103.3 335.491 105.26 335.491 107.58V123H326.551V77.4H335.491V86.7ZM396.045 90.24V123H389.205L388.005 118.8H387.525C386.845 119.92 385.965 120.84 384.885 121.56C383.845 122.24 382.685 122.74 381.405 123.06C380.125 123.42 378.805 123.6 377.445 123.6C375.125 123.6 373.085 123.18 371.325 122.34C369.565 121.5 368.205 120.2 367.245 118.44C366.285 116.68 365.805 114.4 365.805 111.6V90.24H374.745V109.38C374.745 111.7 375.165 113.46 376.005 114.66C376.845 115.86 378.185 116.46 380.025 116.46C381.865 116.46 383.285 116.04 384.285 115.2C385.325 114.36 386.045 113.14 386.445 111.54C386.885 109.94 387.105 107.98 387.105 105.66V90.24H396.045Z" fill="#3C2E51"/>
<defs>
<filter id="filter0_d_162_84" x="87.3372" y="78.9512" width="30.0127" height="38.2609" filterUnits="userSpaceOnUse" color-interpolation-filters="sRGB">
<feFlood flood-opacity="0" result="BackgroundImageFix"/>
<feColorMatrix in="SourceAlpha" type="matrix" values="0 0 0 0 0 0 0 0 0 0 0 0 0 0 0 0 0 0 127 0" result="hardAlpha"/>
<feOffset dy="5"/>
<feGaussianBlur stdDeviation="2.5"/>
<feComposite in2="hardAlpha" operator="out"/>
<feColorMatrix type="matrix" values="0 0 0 0 0 0 0 0 0 0 0 0 0 0 0 0 0 0 0.35 0"/>
<feBlend mode="normal" in2="BackgroundImageFix" result="effect1_dropShadow_162_84"/>
<feBlend mode="normal" in="SourceGraphic" in2="effect1_dropShadow_162_84" result="shape"/>
</filter>
<filter id="filter1_d_162_84" x="508.018" y="83.4229" width="30.0171" height="37.8594" filterUnits="userSpaceOnUse" color-interpolation-filters="sRGB">
<feFlood flood-opacity="0" result="BackgroundImageFix"/>
<feColorMatrix in="SourceAlpha" type="matrix" values="0 0 0 0 0 0 0 0 0 0 0 0 0 0 0 0 0 0 127 0" result="hardAlpha"/>
<feOffset dy="5"/>
<feGaussianBlur stdDeviation="2.5"/>
<feComposite in2="hardAlpha" operator="out"/>
<feColorMatrix type="matrix" values="0 0 0 0 0 0 0 0 0 0 0 0 0 0 0 0 0 0 0.35 0"/>
<feBlend mode="normal" in2="BackgroundImageFix" result="effect1_dropShadow_162_84"/>
<feBlend mode="normal" in="SourceGraphic" in2="effect1_dropShadow_162_84" result="shape"/>
</filter>
</defs>
</svg>
